<?xml version="1.0" encoding="UTF-8" standalone="no"?>
<!-- Created with Inkscape (http://www.inkscape.org/) -->

<svg
   width="210mm"
   height="112mm"
   viewBox="0 0 210 112"
   version="1.1"
   id="svg1"
   inkscape:version="1.3.2 (091e20e, 2023-11-25)"
   sodipodi:docname="edn-vector.svg"
   xmlns:inkscape="http://www.inkscape.org/namespaces/inkscape"
   xmlns:sodipodi="http://sodipodi.sourceforge.net/DTD/sodipodi-0.dtd"
   xmlns="http://www.w3.org/2000/svg"
   xmlns:svg="http://www.w3.org/2000/svg">
  <sodipodi:namedview
     id="namedview1"
     pagecolor="#ffffff"
     bordercolor="#000000"
     borderopacity="0.25"
     inkscape:showpageshadow="2"
     inkscape:pageopacity="0.0"
     inkscape:pagecheckerboard="false"
     inkscape:deskcolor="#d1d1d1"
     inkscape:document-units="mm"
     inkscape:zoom="0.73291163"
     inkscape:cx="333.60093"
     inkscape:cy="232.63378"
     inkscape:window-width="1280"
     inkscape:window-height="1022"
     inkscape:window-x="1281"
     inkscape:window-y="30"
     inkscape:window-maximized="0"
     inkscape:current-layer="layer1" />
  <defs
     id="defs1" />
  <g
     inkscape:label="Layer 1"
     inkscape:groupmode="layer"
     id="layer1">
    <g
       id="g6">
      <g
         id="g5">
        <g
           id="g4">
          <g
             id="g3">
            <g
               id="g2">
              <g
                 id="g1"
                 transform="translate(-0.28633575,3.7488697)">
                <path
                   id="path2"
                   style="clip-rule:evenodd;display:inline;fill:#1a2744;fill-opacity:1;fill-rule:evenodd;stroke-width:0.264583;image-rendering:optimizeQuality;shape-rendering:geometricPrecision;text-rendering:geometricPrecision"
                   d="M 173.55741 3.6176057 C 172.44857 3.5663759 171.29901 3.5865215 170.10904 3.6780671 C 159.91733 5.7984339 154.36104 12.016172 153.44029 22.331192 C 154.43777 31.35452 159.28761 37.175388 167.99238 39.793692 C 167.8892 41.533328 167.71192 43.253121 167.46321 44.953067 C 165.95773 44.731607 164.45754 44.378662 162.96529 43.894734 C 156.55181 41.508728 151.21779 37.672249 146.958 32.385359 C 144.22487 33.796375 141.48906 35.207676 138.75592 36.618692 C 136.04923 35.243396 133.35843 33.832095 130.68613 32.385359 C 125.40505 38.981145 118.61317 43.214493 110.31321 45.085359 C 109.87404 43.261323 109.69674 41.409235 109.78404 39.529109 C 114.09146 38.366531 117.57603 35.985271 120.23509 32.385359 C 124.2832 25.999391 124.54778 19.472888 121.02884 12.806192 C 114.85347 4.4276505 106.78365 1.8259912 96.819462 5.0009838 C 86.828812 9.7695602 83.256931 17.486691 86.103837 28.152025 C 88.715271 34.158583 93.168227 38.039246 99.465295 39.793692 C 99.399155 41.11846 99.31183 42.441384 99.200712 43.762442 L 99.200712 45.085359 C 98.777382 45.156269 98.425478 45.067895 98.142378 44.820775 C 90.424494 43.049389 84.11945 39.080623 79.22467 32.914525 C 79.013 32.569507 78.703438 32.393359 78.298628 32.385359 C 75.531084 33.813045 72.797939 35.312439 70.096545 36.883275 C 67.627989 35.650049 65.246731 34.28295 62.952795 32.782234 C 62.688215 32.605764 62.423635 32.605764 62.159045 32.782234 C 56.957345 39.52328 50.165462 43.712446 41.786128 45.349942 C 41.587688 45.118172 41.455453 44.853582 41.389253 44.556192 C 41.278133 42.964726 41.145828 41.37722 40.992378 39.793692 C 45.799848 38.644614 49.549006 35.998764 52.23717 31.856192 C 56.248242 24.551856 55.896357 17.496183 51.178837 10.689525 C 45.156939 4.1895155 37.880864 2.2051365 29.350712 4.7364005 C 19.83367 9.0004169 15.907237 16.276491 17.576753 26.564525 C 19.788669 33.673071 24.508846 38.082906 31.731962 39.793692 C 31.660522 41.688898 31.440923 43.540996 31.070503 45.349942 C 22.622381 43.508186 15.743183 39.186725 10.433003 32.385359 C 7.6337185 33.983705 4.8555728 35.615134 2.0986282 37.28015 C 9.0518644 46.669932 18.312312 52.446863 29.879878 54.610359 C 28.89298 58.466121 27.702361 62.25868 26.308003 65.987442 C 24.437407 70.347504 21.968824 74.31627 18.89967 77.893692 C 14.15834 82.635542 8.8243164 86.560128 2.8923782 89.66765 C 5.2154136 93.529504 7.6839859 97.277608 10.300712 100.91244 C 13.470414 99.415694 16.558114 97.784008 19.561128 96.01765 C 26.141296 92.260308 31.74255 87.365493 36.36217 81.333275 C 38.328016 83.829341 40.489676 86.166688 42.844462 88.344734 C 49.165348 93.315724 56.044536 97.41677 63.481962 100.64786 C 63.73067 100.61928 63.95292 100.53118 64.14342 100.38328 C 66.109266 96.713494 68.268276 93.185546 70.625712 89.799942 C 72.562458 92.611926 74.369564 95.522358 76.04967 98.531192 C 76.562958 99.29584 77.134462 100.00122 77.769462 100.64786 C 80.801576 99.264616 83.799321 97.80941 86.765295 96.282234 C 93.570371 92.61194 99.478528 87.80524 104.49238 81.862442 C 106.191 83.959528 108.04308 85.943901 110.04863 87.815567 C 116.74786 93.240837 124.15624 97.5181 132.27363 100.64786 C 132.69432 100.51292 133.00123 100.24834 133.19967 99.854109 C 135.12319 96.433055 137.15255 93.081826 139.28509 89.799942 C 141.60282 93.469174 143.98409 97.08498 146.42884 100.64786 C 149.56678 99.144496 152.69948 97.601178 155.82154 96.01765 C 162.48375 92.308728 168.21729 87.502027 173.01946 81.597859 C 174.54875 83.438295 176.13625 85.246201 177.78196 87.021817 C 184.67698 92.802685 192.34994 97.34454 200.80071 100.64786 C 201.22139 100.51292 201.52831 100.24834 201.72675 99.854109 C 203.97571 96.061847 206.22468 92.269289 208.47363 88.477025 C 206.8782 87.753387 205.2907 87.003825 203.71113 86.228067 C 194.7312 81.656867 188.07159 74.821601 183.73509 65.722859 C 182.32486 62.062355 181.04428 58.358171 179.89863 54.610359 C 191.5588 52.401883 200.90656 46.581029 207.94446 37.147859 C 205.17692 35.396853 202.31148 33.809345 199.3455 32.385359 C 197.81092 33.831835 196.35572 35.375151 194.97988 37.015567 C 190.3338 41.103109 184.95217 43.792871 178.84029 45.085359 C 178.38784 43.344673 178.25556 41.580688 178.44342 39.793692 C 189.69612 35.190752 193.84216 26.988624 190.87884 15.187442 C 187.09365 7.8328366 181.31934 3.9762146 173.55741 3.6176057 z M 70.096545 37.941609 C 77.338181 46.812541 86.598627 52.368813 97.877795 54.610359 C 96.441107 59.934027 94.456724 65.049242 91.92467 69.956192 C 86.64359 78.411206 79.412507 84.584743 70.228837 88.477025 C 55.377805 81.869859 46.339609 70.580837 43.109045 54.610359 C 53.493925 52.705623 62.092914 47.766636 68.90592 39.793692 C 69.360998 39.207114 69.757885 38.589837 70.096545 37.941609 z M 138.88821 37.941609 C 145.96316 46.86335 155.13629 52.419611 166.40488 54.610359 C 164.72478 61.467822 161.94665 67.817835 158.0705 73.660359 C 153.05401 80.044482 146.83629 84.895105 139.41738 88.212442 C 124.14565 81.849749 114.8852 70.560749 111.63613 54.345775 C 122.87032 52.357957 131.95349 46.89007 138.88821 37.941609 z " />
                <path
                   style="clip-rule:evenodd;display:inline;fill:#4a6080;fill-opacity:1;fill-rule:evenodd;stroke-width:0.264583;image-rendering:optimizeQuality;shape-rendering:geometricPrecision;text-rendering:geometricPrecision"
                   fill="#f8f8f8"
                   d="m 101.053,6.4560935 c 6.83948,-0.823912 12.44071,1.381125 16.80104,6.6145865 2.62202,3.46524 3.50573,7.34589 2.64584,11.641656 -1.68804,7.28954 -6.23094,11.52287 -13.62604,12.7 0.20108,3.53272 0.46566,7.06041 0.79375,10.58334 9.57527,-1.08321 17.51277,-5.22844 23.81249,-12.43542 1.3679,0.72707 2.69082,1.52082 3.96875,2.38125 -7.22047,8.15261 -16.21631,13.0474 -26.98749,14.68437 2.74637,17.19924 11.91947,29.54655 27.51666,37.04167 -1.43404,2.51354 -2.93158,4.9829 -4.49792,7.40833 -2.8575,-0.76438 -5.59064,-1.91082 -8.20208,-3.43958 -7.70996,-3.87324 -13.97,-9.38556 -18.78541,-16.53646 -6.611938,9.51151 -15.343188,16.12609 -26.193748,19.84375 -1.4658,-2.44739 -2.96598,-4.87283 -4.49792,-7.27604 15.51517,-7.71657 24.42104,-20.19617 26.722918,-37.43854 -10.670648,-1.49887 -19.579168,-6.26137 -26.722918,-14.2875 1.13506,-0.92207 2.37067,-1.71582 3.70417,-2.38125 6.45318,7.15195 14.48064,11.29718 24.077078,12.43542 0.19579,-3.52664 0.37306,-7.05432 0.52917,-10.58334 -7.741708,-1.17157 -12.461878,-5.58138 -14.155208,-13.22916 -0.77259,-6.524626 1.56633,-11.595896 7.01146,-15.2135405 1.96056,-1.077913 3.98991,-1.915848 6.085408,-2.513542 z"
                   id="path3" />
                <path
                   fill="#f8f8f8"
                   d="m 169.58008,6.4560935 c 8.80269,-1.002242 15.11036,2.437342 18.91771,10.3187465 2.23838,10.949516 -2.03729,17.916786 -12.83229,20.902086 -0.0873,0.30876 -0.17727,0.61727 -0.26458,0.92604 0.32544,3.12684 0.59002,6.25792 0.79375,9.39271 9.56998,-1.08003 17.50748,-5.22526 23.8125,-12.43542 1.37583,0.73104 2.69875,1.52479 3.96875,2.38125 -7.16756,8.17086 -16.1634,13.02147 -26.9875,14.55208 1.651,11.46043 6.67808,21.11772 15.08125,28.97188 3.92641,3.06546 8.07244,5.79966 12.43541,8.20208 -1.38906,2.5363 -2.88925,5.00592 -4.49791,7.40833 -9.14929,-3.18928 -17.04446,-8.34866 -23.68021,-15.47812 -1.16681,-1.54146 -2.27013,-3.12896 -3.30729,-4.7625 -4.8895,7.49141 -11.32946,13.26832 -19.31459,17.33021 -1.93939,0.97022 -3.88143,1.94019 -5.82083,2.91041 -0.33867,0.18098 -0.64823,0.13679 -0.92604,-0.13229 -1.45521,-2.38125 -2.91042,-4.7625 -4.36563,-7.14375 15.28763,-7.89331 24.10884,-20.41684 26.45834,-37.57083 -10.75267,-1.53961 -19.7485,-6.3463 -26.9875,-14.41979 1.32291,-0.74957 2.64583,-1.4994 3.96875,-2.24896 6.45319,7.15195 14.48064,11.29718 24.07708,12.43542 0.20638,-3.44382 0.47096,-6.8834 0.79375,-10.31875 -10.20498,-1.98279 -15.01246,-8.15631 -14.41979,-18.520836 1.81769,-6.88842 6.18331,-11.1217565 13.09687,-12.6999965 z"
                   id="path4"
                   style="clip-rule:evenodd;display:inline;fill-rule:evenodd;stroke-width:0.264583;image-rendering:optimizeQuality;shape-rendering:geometricPrecision;text-rendering:geometricPrecision"
                   inkscape:label="path4" />
                <path
                   style="clip-rule:evenodd;fill-rule:evenodd;stroke-width:0.264583;image-rendering:optimizeQuality;shape-rendering:geometricPrecision;text-rendering:geometricPrecision"
                   fill="#666666"
                   d="m 99.200922,43.762336 c 0,0.44106 0,0.88186 0,1.32292 -0.42333,0.0709 -0.77523,-0.0175 -1.05833,-0.26458 0.26458,0 0.52916,0 0.79375,0 -0.0714,-0.42307 0.0185,-0.77576 0.26458,-1.05834 z"
                   id="path12" />
              </g>
            </g>
          </g>
        </g>
      </g>
    </g>
  </g>
</svg>
