<?xml version="1.0" encoding="UTF-8" standalone="no"?>
<svg
   version="1.1"
   width="861.20422"
   height="545.07532"
   style="clip-rule:evenodd;fill-rule:evenodd;image-rendering:optimizeQuality;shape-rendering:geometricPrecision;text-rendering:geometricPrecision"
   id="svg139"
   xmlns="http://www.w3.org/2000/svg"
   xmlns:svg="http://www.w3.org/2000/svg">
  <defs
     id="defs139" />
  <g
     id="g1"
     transform="translate(-261.3135,-277.29434)">
    <path
       style="opacity:1"
       fill="#f9f9f9"
       d="m -0.5,-0.5 c 912,0 1824,0 2736,0 0,522.667 0,1045.33 0,1568 -912,0 -1824,0 -2736,0 0,-522.67 0,-1045.333 0,-1568 z"
       id="path1" />
  </g>
  <g
     id="g139"
     style="clip-rule:evenodd;fill-rule:evenodd;image-rendering:optimizeQuality;shape-rendering:geometricPrecision;text-rendering:geometricPrecision">
    <path
       fill="#040404"
       d="m 395,155.83278 c 1.07,0.934 2.4,1.268 4,1 0,-1.667 0,-3.333 0,-5 0.42,-4.993 0.75,-9.993 1,-15 -23.8,-6.631 -40.63,-21.298 -50.5,-44.000004 -10.76,-40.31 2.74,-69.477 40.5,-87.5000005 37.66,-12 68.16,-2.167 91.5,29.5000005 13.3,25.197 12.3,49.864 -3,74.000004 -10.05,13.606 -23.22,22.606 -39.5,27 -0.33,7.106 0.34,14.106 2,21 31.37,-7.071 57.04,-23.071 77,-48 10.1,5.468 20.27,10.802 30.5,16 10.33,-5.333 20.67,-10.667 31,-16 16.1,19.982 36.26,34.482 60.5,43.5 5.64,1.829 11.31,3.163 17,4 0.94,-6.425 1.61,-12.925 2,-19.5 -32.9,-9.896 -51.23,-31.896 -55,-66.000004 3.48,-38.986 24.48,-62.4860005 63,-70.50000046 35.98,-2.76800004 62.15,11.73200046 78.5,43.50000046 11.2,44.603 -4.47,75.603004 -47,93.000004 -0.71,6.754 -0.21,13.421 1.5,20 23.1,-4.885 43.44,-15.051 61,-30.5 5.2,-6.2 10.7,-12.033 16.5,-17.5 11.21,5.382 22.04,11.382 32.5,18 -26.6,35.653 -61.93,57.653 -106,66 4.33,14.165 9.17,28.165 14.5,42 16.39,34.389 41.56,60.223 75.5,77.5 5.97,2.932 11.97,5.765 18,8.5 -8.5,14.333 -17,28.667 -25.5,43 -0.75,1.49 -1.91,2.49 -3.5,3 -31.94,-12.485 -60.94,-29.651 -87,-51.5 -6.22,-6.711 -12.22,-13.544 -18,-20.5 -18.15,22.315 -39.82,40.482 -65,54.5 -11.8,5.985 -23.64,11.818 -35.5,17.5 -9.24,-13.466 -18.24,-27.132 -27,-41 -8.06,12.404 -15.73,25.07 -23,38 -0.75,1.49 -1.91,2.49 -3.5,3 -30.68,-11.829 -58.68,-27.995 -84,-48.5 -7.58,-7.074 -14.58,-14.574 -21,-22.5 -18.95,22.461 -41.28,40.628 -67,54.5 -11.21,5.772 -22.54,11.272 -34,16.5 -2.4,-2.444 -4.56,-5.11 -6.5,-8 -6.35,-11.372 -13.18,-22.372 -20.5,-33 -8.91,12.796 -17.07,26.13 -24.5,40 -0.72,0.559 -1.56,0.892 -2.5,1 -28.11,-12.212 -54.11,-27.712 -78,-46.5 -8.9,-8.232 -17.07,-17.066 -24.5,-26.5 -17.46,22.799 -38.63,41.299 -63.5,55.5 -11.35,6.676 -23.02,12.843 -35,18.5 -9.89,-13.738 -19.22,-27.904 -28,-42.5 22.42,-11.745 42.58,-26.578 60.5,-44.5 11.6,-13.521 20.93,-28.521 28,-45 5.27,-14.093 9.77,-28.427 13.5,-43 -43.72,-8.177 -78.72,-30.011 -105,-65.5 10.42,-6.293 20.92,-12.459 31.5,-18.5 20.07,25.706 46.07,42.039 78,49 1.4,-6.837 2.23,-13.837 2.5,-21 -27.3,-6.466 -45.14,-23.133 -53.5,-50.000004 -6.31,-38.884 8.53,-66.384 44.5,-82.5000005 32.24,-9.567 59.74,-2.067 82.5,22.5000005 17.83,25.726 19.16,52.393 4,80.000004 -10.16,15.657 -24.33,25.657 -42.5,30 0.58,5.985 1.08,11.985 1.5,18 0.25,1.124 0.75,2.124 1.5,3 31.67,-6.189 57.34,-22.022 77,-47.5 1,-0.667 2,-0.667 3,0 8.67,5.672 17.67,10.839 27,15.5 10.21,-5.937 20.54,-11.604 31,-17 1.53,0.029 2.7,0.696 3.5,2 18.5,23.305 42.33,38.305 71.5,45 z"
       id="path2" />
    <g
       id="g3"
       transform="translate(-1495.5,-503.66722)">
      <path
         style="opacity:1"
         fill="#f8f8f8"
         d="m 1901.5,514.5 c 25.85,-3.114 47.02,5.22 63.5,25 9.91,13.097 13.25,27.764 10,44 -6.38,27.551 -23.55,43.551 -51.5,48 0.76,13.352 1.76,26.685 3,40 36.19,-4.094 66.19,-19.761 90,-47 5.17,2.748 10.17,5.748 15,9 -27.29,30.813 -61.29,49.313 -102,55.5 10.38,65.005 45.05,111.672 104,140 -5.42,9.5 -11.08,18.833 -17,28 -10.8,-2.889 -21.13,-7.222 -31,-13 -29.14,-14.639 -52.8,-35.473 -71,-62.5 -24.99,35.949 -57.99,60.949 -99,75 -5.54,-9.25 -11.21,-18.417 -17,-27.5 58.64,-29.165 92.3,-76.332 101,-141.5 -40.33,-5.665 -74,-23.665 -101,-54 4.29,-3.485 8.96,-6.485 14,-9 24.39,27.031 54.73,42.698 91,47 0.74,-13.329 1.41,-26.662 2,-40 -29.26,-4.428 -47.1,-21.095 -53.5,-50 -2.92,-24.66 5.92,-43.827 26.5,-57.5 7.41,-4.074 15.08,-7.241 23,-9.5 z"
         id="path3" />
    </g>
    <g
       id="g4"
       transform="translate(-1495.5,-503.66722)">
      <path
         style="opacity:1"
         fill="#f8f8f8"
         d="m 2160.5,514.5 c 33.27,-3.788 57.11,9.212 71.5,39 8.46,41.384 -7.7,67.717 -48.5,79 -0.33,1.167 -0.67,2.333 -1,3.5 1.23,11.818 2.23,23.652 3,35.5 36.17,-4.082 66.17,-19.749 90,-47 5.2,2.763 10.2,5.763 15,9 -27.09,30.882 -61.09,49.215 -102,55 6.24,43.315 25.24,79.815 57,109.5 14.84,11.586 30.51,21.92 47,31 -5.25,9.586 -10.92,18.92 -17,28 -34.58,-12.054 -64.42,-31.554 -89.5,-58.5 -4.41,-5.826 -8.58,-11.826 -12.5,-18 -18.48,28.314 -42.82,50.148 -73,65.5 -7.33,3.667 -14.67,7.333 -22,11 -1.28,0.684 -2.45,0.517 -3.5,-0.5 -5.5,-9 -11,-18 -16.5,-27 57.78,-29.833 91.12,-77.166 100,-142 -40.64,-5.819 -74.64,-23.986 -102,-54.5 5,-2.833 10,-5.667 15,-8.5 24.39,27.031 54.73,42.698 91,47 0.78,-13.016 1.78,-26.016 3,-39 -38.57,-7.494 -56.74,-30.827 -54.5,-70 6.87,-26.035 23.37,-42.035 49.5,-48 z"
         id="path4" />
    </g>
    <g
       id="g8"
       transform="translate(-1495.5,-503.66722)">
      <path
         style="opacity:1"
         fill="#f9f9f9"
         d="m 1784.5,633.5 c 27.37,33.528 62.37,54.528 105,63 -5.43,20.121 -12.93,39.454 -22.5,58 -19.96,31.956 -47.29,55.289 -82,70 -56.13,-24.972 -90.29,-67.639 -102.5,-128 39.25,-7.199 71.75,-25.866 97.5,-56 1.72,-2.217 3.22,-4.55 4.5,-7 z"
         id="path8" />
    </g>
    <g
       id="g9"
       transform="translate(-1495.5,-503.66722)">
      <path
         style="opacity:1"
         fill="#f9f9f9"
         d="m 2044.5,633.5 c 26.74,33.72 61.41,54.72 104,63 -6.35,25.918 -16.85,49.918 -31.5,72 -18.96,24.129 -42.46,42.462 -70.5,55 -57.72,-24.048 -92.72,-66.715 -105,-128 42.46,-7.513 76.79,-28.179 103,-62 z"
         id="path9" />
    </g>
    <g
       id="g12"
       transform="translate(-1495.5,-503.66722)">
      <path
         style="opacity:1"
         fill="#666666"
         d="m 1894.5,655.5 c 0,1.667 0,3.333 0,5 -1.6,0.268 -2.93,-0.066 -4,-1 1,0 2,0 3,0 -0.27,-1.599 0.07,-2.932 1,-4 z"
         id="path12" />
    </g>
    <g
       id="g13"
       transform="translate(-1495.5,-503.66722)">
      <path
         style="opacity:1"
         fill="#8f8f8f"
         d="m 2054.5,897.5 c -10,0 -20,0 -30,0 0,1.667 0,3.333 0,5 -0.96,-1.765 -1.29,-3.765 -1,-6 10.51,-0.328 20.85,0.006 31,1 z"
         id="path13" />
    </g>
    <g
       id="g14"
       transform="translate(-1495.5,-503.66722)">
      <path
         style="opacity:1"
         fill="#0c0c0c"
         d="m 1689.5,928.5 c 0.53,2.96 1.2,3.293 2,1 2.56,-10.281 5.06,-20.615 7.5,-31 2.72,-0.944 5.55,-1.277 8.5,-1 2.04,10.842 4.71,21.508 8,32 3.6,-10.417 6.27,-21.084 8,-32 2.42,-0.308 4.76,0.026 7,1 -3.98,13.934 -7.65,27.934 -11,42 -2.78,0.221 -5.45,-0.112 -8,-1 -2.12,-10.521 -4.95,-20.854 -8.5,-31 -3.31,10.583 -6.31,21.249 -9,32 -2.33,1.333 -4.67,1.333 -7,0 -3.73,-14.034 -7.57,-28.034 -11.5,-42 2.24,-0.974 4.58,-1.308 7,-1 2.49,10.304 4.83,20.637 7,31 z"
         id="path14" />
    </g>
    <g
       id="g15"
       transform="translate(-1495.5,-503.66722)">
      <path
         style="opacity:1"
         fill="#0d0e0d"
         d="m 1748.5,896.5 c 12.26,-1.461 20.43,3.539 24.5,15 1.45,8.176 0.12,15.843 -4,23 -9.72,8.922 -19.72,9.255 -30,1 -4.78,-8.835 -5.78,-18.168 -3,-28 2.71,-5.421 6.87,-9.087 12.5,-11 z"
         id="path15" />
    </g>
    <g
       id="g16"
       transform="translate(-1495.5,-503.66722)">
      <path
         style="opacity:1"
         fill="#060606"
         d="m 1781.5,897.5 c 7.01,-0.166 14.01,0 21,0.5 4.4,0.73 7.23,3.23 8.5,7.5 2.25,7.811 0.08,13.977 -6.5,18.5 2.81,5.126 5.48,10.293 8,15.5 -1.76,0.961 -3.76,1.295 -6,1 -3.35,-4.858 -6.35,-10.025 -9,-15.5 -2.98,-0.498 -5.98,-0.665 -9,-0.5 -0.99,5.14 -1.32,10.474 -1,16 -2,0 -4,0 -6,0 0,-14.333 0,-28.667 0,-43 z"
         id="path16" />
    </g>
    <g
       id="g17"
       transform="translate(-1495.5,-503.66722)">
      <path
         style="opacity:1"
         fill="#060606"
         d="m 1819.5,897.5 c 2,0 4,0 6,0 -0.33,12.844 0,25.511 1,38 6.33,0 12.67,0 19,0 0,1.667 0,3.333 0,5 -8.67,0 -17.33,0 -26,0 0,-14.333 0,-28.667 0,-43 z"
         id="path17" />
    </g>
    <g
       id="g18"
       transform="translate(-1495.5,-503.66722)">
      <path
         style="opacity:1"
         fill="#0e0e0e"
         d="m 1852.5,897.5 c 7.01,-0.166 14.01,0 21,0.5 6.74,1.736 11.24,5.903 13.5,12.5 0.87,6.417 0.54,12.751 -1,19 -3.03,6.609 -8.2,10.442 -15.5,11.5 -5.99,0.499 -11.99,0.666 -18,0.5 0,-14.667 0,-29.333 0,-44 z"
         id="path18" />
    </g>
    <g
       id="g19"
       transform="translate(-1495.5,-503.66722)">
      <path
         style="opacity:1"
         fill="#0e0e0e"
         d="m 1924.5,896.5 c 6.36,-0.599 12.36,0.568 18,3.5 3.57,3.054 5.57,6.887 6,11.5 -2.33,0 -4.67,0 -7,0 0.23,-3.285 -1.1,-5.785 -4,-7.5 -13.15,-3.75 -19.82,1.25 -20,15 -0.06,11.614 5.61,16.948 17,16 4.38,-1.205 6.71,-4.039 7,-8.5 2.42,-0.308 4.76,0.026 7,1 -3.93,11.472 -11.93,15.972 -24,13.5 -7.04,-2.369 -11.2,-7.202 -12.5,-14.5 -3.46,-13.501 0.7,-23.501 12.5,-30 z"
         id="path19" />
    </g>
    <g
       id="g20"
       transform="translate(-1495.5,-503.66722)">
      <path
         style="opacity:1"
         fill="#040404"
         d="m 1962.5,897.5 c 0,14.333 0,28.667 0,43 -2,0 -4,0 -6,0 0,-14.333 0,-28.667 0,-43 2,0 4,0 6,0 z"
         id="path20" />
    </g>
    <g
       id="g21"
       transform="translate(-1495.5,-503.66722)">
      <path
         style="opacity:1"
         fill="#000000"
         d="m 1989.5,902.5 c -1,12.489 -1.33,25.156 -1,38 -1.67,0 -3.33,0 -5,0 0.33,-12.844 0,-25.511 -1,-38 -4.33,0 -8.67,0 -13,0 0,-1.667 0,-3.333 0,-5 11,0 22,0 33,0 0,1.667 0,3.333 0,5 -4.33,0 -8.67,0 -13,0 z"
         id="path21" />
    </g>
    <g
       id="g22"
       transform="translate(-1495.5,-503.66722)">
      <path
         style="opacity:1"
         fill="#050505"
         d="m 2015.5,897.5 c 0,14.333 0,28.667 0,43 -2,0 -4,0 -6,0 0,-14.333 0,-28.667 0,-43 2,0 4,0 6,0 z"
         id="path22" />
    </g>
    <g
       id="g23"
       transform="translate(-1495.5,-503.66722)">
      <path
         style="opacity:1"
         fill="#050505"
         d="m 2054.5,897.5 c 0.16,2.027 0,4.027 -0.5,6 -6.66,10.155 -13.5,20.155 -20.5,30 -0.54,0.06 -0.88,0.393 -1,1 7.64,0.997 15.3,1.331 23,1 0,1.667 0,3.333 0,5 -10.33,0 -20.67,0 -31,0 0,-1.333 0,-2.667 0,-4 7.03,-10.684 14.03,-21.351 21,-32 0.79,-0.283 1.46,-0.783 2,-1.5 -7.66,-0.5 -15.33,-0.666 -23,-0.5 0,-1.667 0,-3.333 0,-5 10,0 20,0 30,0 z"
         id="path23" />
    </g>
    <g
       id="g24"
       transform="translate(-1495.5,-503.66722)">
      <path
         style="opacity:1"
         fill="#030303"
         d="m 2090.5,902.5 c -7,0 -14,0 -21,0 0,4.667 0,9.333 0,14 6.33,0 12.67,0 19,0 0,1.667 0,3.333 0,5 -6.33,0 -12.67,0 -19,0 0,4.667 0,9.333 0,14 7,0 14,0 21,0 0,1.667 0,3.333 0,5 -9,0 -18,0 -27,0 0,-14.333 0,-28.667 0,-43 9,0 18,0 27,0 0,1.667 0,3.333 0,5 z"
         id="path24" />
    </g>
    <g
       id="g25"
       transform="translate(-1495.5,-503.66722)">
      <path
         style="opacity:1"
         fill="#040404"
         d="m 2105.5,897.5 c 6.67,10 13.33,20 20,30 0.28,0.789 0.78,1.456 1.5,2 0.5,-10.661 0.67,-21.328 0.5,-32 2,0 4,0 6,0 0,14.333 0,28.667 0,43 -2,0 -4,0 -6,0 -7.14,-10.267 -14.31,-20.6 -21.5,-31 -0.5,10.328 -0.67,20.661 -0.5,31 -2,0 -4,0 -6,0 0,-14.333 0,-28.667 0,-43 2,0 4,0 6,0 z"
         id="path25" />
    </g>
    <g
       id="g26"
       transform="translate(-1495.5,-503.66722)">
      <path
         style="opacity:1"
         fill="#0d0d0d"
         d="m 2152.5,896.5 c 8.26,-1.279 14.76,1.388 19.5,8 0.49,1.293 0.66,2.627 0.5,4 -4.03,0.494 -7.03,-1.006 -9,-4.5 -3.54,-1.504 -7.21,-1.837 -11,-1 -5.31,3.717 -5.31,7.383 0,11 4.28,1.486 8.61,2.819 13,4 9.09,4.958 10.43,11.625 4,20 -8.97,5.153 -17.47,4.653 -25.5,-1.5 -1.71,-2.409 -2.54,-5.075 -2.5,-8 2.33,0 4.67,0 7,0 0.46,5.414 3.46,7.747 9,7 8.07,0.137 10.73,-3.363 8,-10.5 -6.33,-2.333 -12.67,-4.667 -19,-7 -6.8,-9.659 -4.8,-16.826 6,-21.5 z"
         id="path26" />
    </g>
    <g
       id="g27"
       transform="translate(-1495.5,-503.66722)">
      <path
         style="opacity:1"
         fill="#717071"
         d="m 1819.5,897.5 c 2.11,-0.968 4.44,-1.302 7,-1 0,13 0,26 0,39 -1,-12.489 -1.33,-25.156 -1,-38 -2,0 -4,0 -6,0 z"
         id="path27" />
    </g>
    <g
       id="g28"
       transform="translate(-1495.5,-503.66722)">
      <path
         style="opacity:1"
         fill="#b6b6b6"
         d="m 2024.5,902.5 c 7.67,-0.166 15.34,0 23,0.5 -0.54,0.717 -1.21,1.217 -2,1.5 -7,-0.667 -14,-1.333 -21,-2 z"
         id="path28" />
    </g>
    <g
       id="g29"
       transform="translate(-1495.5,-503.66722)">
      <path
         style="opacity:1"
         fill="#f5f5f5"
         d="m 1749.5,902.5 c 7.99,-1.403 13.49,1.597 16.5,9 0.85,5.753 0.52,11.42 -1,17 -5.03,7.366 -11.53,8.866 -19.5,4.5 -6,-8.497 -6.5,-17.33 -1.5,-26.5 1.81,-1.477 3.65,-2.81 5.5,-4 z"
         id="path29" />
    </g>
    <g
       id="g30"
       transform="translate(-1495.5,-503.66722)">
      <path
         style="opacity:1"
         fill="#f6f6f6"
         d="m 1800.5,903.5 c 1.87,0.359 3.37,1.359 4.5,3 0.82,3.464 0.48,6.798 -1,10 -0.75,0.626 -1.58,1.126 -2.5,1.5 -4.32,0.499 -8.65,0.666 -13,0.5 0,-5 0,-10 0,-15 4,0 8,0 12,0 z"
         id="path30" />
    </g>
    <g
       id="g31"
       transform="translate(-1495.5,-503.66722)">
      <path
         style="opacity:1"
         fill="#f6f6f6"
         d="m 1871.5,903.5 c 4.59,1.421 7.76,4.421 9.5,9 2.65,16.851 -4.52,24.517 -21.5,23 0,-10.667 0,-21.333 0,-32 4,0 8,0 12,0 z"
         id="path31" />
    </g>
    <g
       id="g32"
       transform="translate(-1495.5,-503.66722)">
      <path
         style="opacity:1"
         fill="#656565"
         d="m 1871.5,903.5 c -4,0 -8,0 -12,0 0,10.667 0,21.333 0,32 -0.99,-10.821 -1.33,-21.821 -1,-33 4.53,-0.318 8.87,0.015 13,1 z"
         id="path32" />
    </g>
    <g
       id="g33"
       transform="translate(-1495.5,-503.66722)">
      <path
         style="opacity:1"
         fill="#595959"
         d="m 2105.5,897.5 c -2,0 -4,0 -6,0 0,14.333 0,28.667 0,43 2,0 4,0 6,0 -2.11,0.968 -4.44,1.302 -7,1 0,-15 0,-30 0,-45 2.56,-0.302 4.89,0.032 7,1 z"
         id="path33" />
    </g>
    <g
       id="g34"
       transform="translate(-1495.5,-503.66722)">
      <path
         style="opacity:1"
         fill="#aeafae"
         d="m 1800.5,903.5 c -4,0 -8,0 -12,0 0,5 0,10 0,15 -0.99,-5.14 -1.32,-10.474 -1,-16 4.53,-0.318 8.87,0.015 13,1 z"
         id="path34" />
    </g>
    <g
       id="g35"
       transform="translate(-1495.5,-503.66722)">
      <path
         style="opacity:1"
         fill="#565656"
         d="m 2015.5,897.5 c 1,14.49 1.33,29.157 1,44 -2.56,0.302 -4.89,-0.032 -7,-1 2,0 4,0 6,0 0,-14.333 0,-28.667 0,-43 z"
         id="path35" />
    </g>
    <g
       id="g36"
       transform="translate(-1495.5,-503.66722)">
      <path
         style="opacity:1"
         fill="#c0c1c1"
         d="m 2127.5,897.5 c 0.17,10.672 0,21.339 -0.5,32 -0.72,-0.544 -1.22,-1.211 -1.5,-2 0.67,-10 1.33,-20 2,-30 z"
         id="path36" />
    </g>
    <g
       id="g37"
       transform="translate(-1495.5,-503.66722)">
      <path
         style="opacity:1"
         fill="#bbbaba"
         d="m 1781.5,897.5 c 0,14.333 0,28.667 0,43 2,0 4,0 6,0 -0.32,-5.526 0.01,-10.86 1,-16 0,5.667 0,11.333 0,17 -2.67,0 -5.33,0 -8,0 -0.33,-14.843 0,-29.51 1,-44 z"
         id="path37" />
    </g>
    <g
       id="g38"
       transform="translate(-1495.5,-503.66722)">
      <path
         style="opacity:1"
         fill="#8d8d8d"
         d="m 2090.5,902.5 c -6.48,0.991 -13.15,1.324 -20,1 0,4 0,8 0,12 6.33,0 12.67,0 19,0 0,2.333 0,4.667 0,7 -6.33,0 -12.67,0 -19,0 0,4 0,8 0,12 7,0 14,0 21,0 0,2.333 0,4.667 0,7 -9.51,0.327 -18.85,-0.006 -28,-1 9,0 18,0 27,0 0,-1.667 0,-3.333 0,-5 -7,0 -14,0 -21,0 0,-4.667 0,-9.333 0,-14 6.33,0 12.67,0 19,0 0,-1.667 0,-3.333 0,-5 -6.33,0 -12.67,0 -19,0 0,-4.667 0,-9.333 0,-14 7,0 14,0 21,0 z"
         id="path38" />
    </g>
    <g
       id="g39"
       transform="translate(-1495.5,-503.66722)">
      <path
         style="opacity:1"
         fill="#686868"
         d="m 1962.5,897.5 c -2,0 -4,0 -6,0 0,14.333 0,28.667 0,43 2,0 4,0 6,0 -2.11,0.968 -4.44,1.302 -7,1 0,-15 0,-30 0,-45 2.56,-0.302 4.89,0.032 7,1 z"
         id="path39" />
    </g>
    <g
       id="g40"
       transform="translate(-1495.5,-503.66722)">
      <path
         style="opacity:1"
         fill="#9d9d9d"
         d="m 2133.5,897.5 c 1,14.49 1.33,29.157 1,44 -2.56,0.302 -4.89,-0.032 -7,-1 2,0 4,0 6,0 0,-14.333 0,-28.667 0,-43 z"
         id="path40" />
    </g>
    <g
       id="g41"
       transform="translate(-1495.5,-503.66722)">
      <path
         style="opacity:1"
         fill="#434343"
         d="m 1982.5,902.5 c 1,12.489 1.33,25.156 1,38 1.67,0 3.33,0 5,0 -0.33,-12.844 0,-25.511 1,-38 0,13 0,26 0,39 -2.33,0 -4.67,0 -7,0 0,-13 0,-26 0,-39 z"
         id="path41" />
    </g>
    <g
       id="g42"
       transform="translate(-1495.5,-503.66722)">
      <path
         style="opacity:1"
         fill="#7b7b7d"
         d="m 1689.5,928.5 c 0.67,0.333 1.33,0.667 2,1 -0.8,2.293 -1.47,1.96 -2,-1 z"
         id="path42" />
    </g>
    <g
       id="g43"
       transform="translate(-1495.5,-503.66722)">
      <path
         style="opacity:1"
         fill="#b4b5b4"
         d="m 2033.5,933.5 c 7.33,0.667 14.67,1.333 22,2 -7.7,0.331 -15.36,-0.003 -23,-1 0.12,-0.607 0.46,-0.94 1,-1 z"
         id="path43" />
    </g>
    <g
       id="g44"
       transform="translate(-1495.5,-503.66722)">
      <path
         style="opacity:1"
         fill="#7a7a7a"
         d="m 1711.5,939.5 c 2.55,0.888 5.22,1.221 8,1 -1.12,0.656 -2.45,0.989 -4,1 -1.83,-0.085 -3.17,-0.752 -4,-2 z"
         id="path44" />
    </g>
    <g
       id="g45"
       transform="translate(-1495.5,-503.66722)">
      <path
         style="opacity:1"
         fill="#707070"
         d="m 1812.5,939.5 c 0.54,0.06 0.88,0.393 1,1 -2.47,1.297 -4.81,1.297 -7,0 2.24,0.295 4.24,-0.039 6,-1 z"
         id="path45" />
    </g>
    <g
       id="g46"
       transform="translate(-1495.5,-503.66722)">
      <path
         style="opacity:1"
         fill="#7a7a7a"
         d="m 1845.5,935.5 c 0.96,1.765 1.29,3.765 1,6 -9.18,0.327 -18.18,-0.007 -27,-1 8.67,0 17.33,0 26,0 0,-1.667 0,-3.333 0,-5 z"
         id="path46" />
    </g>
    <g
       id="g47"
       transform="translate(-1495.5,-503.66722)">
      <path
         style="opacity:1"
         fill="#747474"
         d="m 2024.5,936.5 c 0,1.333 0,2.667 0,4 10.33,0 20.67,0 31,0 -10.49,0.994 -21.15,1.328 -32,1 -0.28,-1.915 0.05,-3.581 1,-5 z"
         id="path47" />
    </g>
    <g
       id="g48"
       transform="translate(-1495.5,-503.66722)">
      <path
         style="opacity:1"
         fill="#0f0f0f"
         d="m 2214.5,951.5 c 2.03,-0.162 4.03,0.005 6,0.5 2.9,1.742 5.9,3.242 9,4.5 2.27,-0.862 3.27,-2.529 3,-5 2.33,0 4.67,0 7,0 0.79,9.712 -3.54,13.545 -13,11.5 -2.44,-1.303 -4.94,-2.47 -7.5,-3.5 -1.62,0.454 -2.79,1.454 -3.5,3 -2.24,0.974 -4.58,1.308 -7,1 -0.11,-5.111 1.89,-9.111 6,-12 z"
         id="path48" />
    </g>
    <g
       id="g49"
       transform="translate(-1495.5,-503.66722)">
      <path
         style="opacity:1"
         fill="#060606"
         d="m 1558.5,969.5 c 7.85,-0.589 15.52,0.245 23,2.5 5.15,3.468 7.82,8.301 8,14.5 -4.05,0.324 -8.05,-0.009 -12,-1 -1.81,-4.394 -5.14,-6.394 -10,-6 -7.89,0.511 -10.23,4.178 -7,11 8.1,2.527 16.1,5.36 24,8.5 9.27,9.5 8.94,18.84 -1,28 -10.85,4.92 -21.52,4.59 -32,-1 -11.59,-11.5 -9.92,-16.5 5,-15 3.47,8.38 9.47,10.71 18,7 4,-3.67 4,-7.33 0,-11 -7.64,-1.41 -14.97,-3.74 -22,-7 -10.87,-12.675 -8.87,-22.842 6,-30.5 z"
         id="path49" />
    </g>
    <g
       id="g50"
       transform="translate(-1495.5,-503.66722)">
      <path
         style="opacity:1"
         fill="#070707"
         d="m 1619.5,968.5 c 14.28,-1.448 24.45,4.219 30.5,17 0.49,1.634 0.66,3.301 0.5,5 -7.29,1.651 -12.46,-0.683 -15.5,-7 -14.94,-6.437 -23.11,-1.437 -24.5,15 -0.21,13.96 6.45,20.46 20,19.5 4.2,-1.37 6.87,-4.2 8,-8.5 3.95,-0.99 7.95,-1.32 12,-1 -1.28,12.12 -7.95,19.28 -20,21.5 -18.72,1.62 -29.55,-6.88 -32.5,-25.5 -2.25,-17.867 4.92,-29.867 21.5,-36 z"
         id="path50" />
    </g>
    <g
       id="g51"
       transform="translate(-1495.5,-503.66722)">
      <path
         style="opacity:1"
         fill="#070707"
         d="m 1680.5,968.5 c 24.59,0.088 35.75,12.422 33.5,37 -4.04,17.78 -15.2,25.95 -33.5,24.5 -12.51,-3.5 -19.67,-11.67 -21.5,-24.5 -2.97,-18.471 4.19,-30.804 21.5,-37 z"
         id="path51" />
    </g>
    <g
       id="g52"
       transform="translate(-1495.5,-503.66722)">
      <path
         style="opacity:1"
         fill="#040404"
         d="m 1881.5,969.5 c 4,0 8,0 12,0 0,20 0,40 0,60 -4,0 -8,0 -12,0 0.16,-2.03 0,-4.03 -0.5,-6 -7.39,8.25 -15.56,9.08 -24.5,2.5 -6.95,-9.15 -8.78,-19.31 -5.5,-30.5 5.74,-11.787 14.57,-14.954 26.5,-9.5 1.29,1.41 2.45,2.91 3.5,4.5 0.5,-6.992 0.67,-13.992 0.5,-21 z"
         id="path52" />
    </g>
    <g
       id="g53"
       transform="translate(-1495.5,-503.66722)">
      <path
         style="opacity:1"
         fill="#080808"
         d="m 2156.5,968.5 c 14.71,-1.733 25.21,3.933 31.5,17 0.49,1.634 0.66,3.301 0.5,5 -4.33,0 -8.67,0 -13,0 -2.6,-9.136 -8.6,-12.302 -18,-9.5 -7.1,4.099 -10.1,10.266 -9,18.5 -0.07,15.44 7.26,21.28 22,17.5 3.1,-2.03 4.76,-4.86 5,-8.5 4.33,0 8.67,0 13,0 -2.49,12.66 -10.16,20.16 -23,22.5 1.95,0.98 3.78,2.15 5.5,3.5 1.43,10.74 -3.4,15.4 -14.5,14 0,-2.33 0,-4.67 0,-7 3.1,0.59 5.43,-0.41 7,-3 -0.92,-2.26 -2.59,-3.26 -5,-3 0,-2 0,-4 0,-6 -11.99,-1.49 -19.49,-8.15 -22.5,-20 -4.79,-19.759 2.05,-33.426 20.5,-41 z"
         id="path53" />
    </g>
    <g
       id="g54"
       transform="translate(-1495.5,-503.66722)">
      <path
         style="opacity:1"
         fill="#070707"
         d="m 2217.5,968.5 c 24.59,-0.576 36.09,11.424 34.5,36 -3.96,21.07 -16.46,29.24 -37.5,24.5 -9.97,-3.76 -15.8,-10.92 -17.5,-21.5 -4.1,-19.152 2.74,-32.152 20.5,-39 z"
         id="path54" />
    </g>
    <g
       id="g55"
       transform="translate(-1495.5,-503.66722)">
      <path
         style="opacity:1"
         fill="#070707"
         d="m 2327.5,968.5 c 10.01,-1.046 18.51,1.954 25.5,9 1.91,2.706 2.74,5.706 2.5,9 -4.05,0.324 -8.05,-0.009 -12,-1 -3.61,-5.263 -8.61,-7.097 -15,-5.5 -4.01,2.325 -5.01,5.659 -3,10 7.63,2.792 15.3,5.458 23,8 7.96,5.29 10.13,12.45 6.5,21.5 -4.62,8.28 -11.79,11.95 -21.5,11 -9.6,0.42 -17.1,-3.24 -22.5,-11 -1.15,-2.89 -1.65,-5.89 -1.5,-9 4.33,0 8.67,0 13,0 0.9,5.88 4.4,8.88 10.5,9 3.01,-0.23 5.85,-1.06 8.5,-2.5 2.56,-3.07 2.56,-6.07 0,-9 -6.21,-2.38 -12.54,-4.38 -19,-6 -10.96,-5.208 -13.79,-13.375 -8.5,-24.5 3.83,-4.152 8.33,-7.152 13.5,-9 z"
         id="path55" />
    </g>
    <g
       id="g56"
       transform="translate(-1495.5,-503.66722)">
      <path
         style="opacity:1"
         fill="#030303"
         d="m 1495.5,970.5 c 13.33,0 26.67,0 40,0 0,3 0,6 0,9 -9.18,-0.327 -18.18,0.007 -27,1 0,4.667 0,9.333 0,14 8.67,0 17.33,0 26,0 0,3.333 0,6.67 0,10 -8.67,0 -17.33,0 -26,0 0,4.67 0,9.33 0,14 8.82,0.99 17.82,1.33 27,1 0,3 0,6 0,9 -13.33,0 -26.67,0 -40,0 0,-19.33 0,-38.667 0,-58 z"
         id="path56" />
    </g>
    <g
       id="g57"
       transform="translate(-1495.5,-503.66722)">
      <path
         style="opacity:1"
         fill="#040404"
         d="m 1723.5,969.5 c 4,0 8,0 12,0 0,16.333 0,32.67 0,49 8.67,0 17.33,0 26,0 0,3.33 0,6.67 0,10 -12.67,0 -25.33,0 -38,0 0,-19.67 0,-39.333 0,-59 z"
         id="path57" />
    </g>
    <g
       id="g58"
       transform="translate(-1495.5,-503.66722)">
      <path
         style="opacity:1"
         fill="#060606"
         d="m 1824.5,1027.5 c -4.13,0.98 -8.47,1.32 -13,1 -1.73,-4.2 -3.07,-8.54 -4,-13 -7.36,-0.33 -14.7,0 -22,1 -1.64,3.92 -2.98,7.92 -4,12 -4.79,0.6 -9.13,-0.07 -13,-2 6.53,-18.93 12.86,-37.926 19,-57 5.93,-0.308 11.76,0.025 17.5,1 6.61,18.986 13.11,37.99 19.5,57 z"
         id="path58" />
    </g>
    <g
       id="g59"
       transform="translate(-1495.5,-503.66722)">
      <path
         style="opacity:1"
         fill="#020202"
         d="m 2053.5,1004.5 c 0.28,0.79 0.78,1.46 1.5,2 0.5,-11.995 0.67,-23.995 0.5,-36 4,0 8,0 12,0 0,19.333 0,38.67 0,58 -3.67,0 -7.33,0 -11,0 -8,-11.67 -16,-23.33 -24,-35 -0.06,-0.543 -0.39,-0.876 -1,-1 -1,12.32 -1.33,24.65 -1,37 -4,0 -8,0 -12,0 0,-20 0,-40 0,-60 3.68,-0.165 7.35,10e-4 11,0.5 8.22,11.38 16.22,22.88 24,34.5 z"
         id="path59" />
    </g>
    <g
       id="g60"
       transform="translate(-1495.5,-503.66722)">
      <path
         style="opacity:1"
         fill="#060606"
         d="m 2131.5,1027.5 c -4.13,0.98 -8.47,1.32 -13,1 -1.73,-4.2 -3.07,-8.53 -4,-13 -7.36,-0.33 -14.7,0 -22,1 -1.94,3.81 -3.27,7.81 -4,12 -4.79,0.6 -9.13,-0.07 -13,-2 6.53,-18.93 12.86,-37.926 19,-57 5.93,-0.308 11.76,0.025 17.5,1 6.61,18.986 13.11,37.99 19.5,57 z"
         id="path60" />
    </g>
    <g
       id="g61"
       transform="translate(-1495.5,-503.66722)">
      <path
         style="opacity:1"
         fill="#030303"
         d="m 2261.5,969.5 c 13.33,0 26.67,0 40,0 0,3.333 0,6.667 0,10 -9.18,-0.327 -18.18,0.007 -27,1 -0.99,4.47 -1.32,9.137 -1,14 8.67,0 17.33,0 26,0 0,3.333 0,6.67 0,10 -8.33,0 -16.67,0 -25,0 0,4.67 0,9.33 0,14 8.82,0.99 17.82,1.33 27,1 0,3 0,6 0,9 -13.33,0 -26.67,0 -40,0 0,-19.67 0,-39.333 0,-59 z"
         id="path61" />
    </g>
    <g
       id="g62"
       transform="translate(-1495.5,-503.66722)">
      <path
         style="opacity:1"
         fill="#515151"
         d="m 2055.5,970.5 c 0,-0.333 0,-0.667 0,-1 4.33,0 8.67,0 13,0 0,20 0,40 0,60 -4.2,0.32 -8.2,-0.02 -12,-1 3.67,0 7.33,0 11,0 0,-19.33 0,-38.667 0,-58 -4,0 -8,0 -12,0 z"
         id="path62" />
    </g>
    <g
       id="g63"
       transform="translate(-1495.5,-503.66722)">
      <path
         style="opacity:1"
         fill="#616161"
         d="m 1495.5,970.5 c 13.49,-0.996 27.16,-1.329 41,-1 0,3.667 0,7.333 0,11 -9.33,0 -18.67,0 -28,0 8.82,-0.993 17.82,-1.327 27,-1 0,-3 0,-6 0,-9 -13.33,0 -26.67,0 -40,0 z"
         id="path63" />
    </g>
    <g
       id="g64"
       transform="translate(-1495.5,-503.66722)">
      <path
         style="opacity:1"
         fill="#f5f5f5"
         d="m 1680.5,980.5 c 9.46,-2.021 15.96,1.312 19.5,10 0.67,6 0.67,12 0,18 -4.82,10.05 -12.32,12.55 -22.5,7.5 -5.66,-6.83 -7.49,-14.66 -5.5,-23.5 1.15,-5.296 3.98,-9.296 8.5,-12 z"
         id="path64" />
    </g>
    <g
       id="g65"
       transform="translate(-1495.5,-503.66722)">
      <path
         style="opacity:1"
         fill="#f6f6f6"
         d="m 2218.5,980.5 c 9.43,-2.039 15.93,1.294 19.5,10 0.88,6.749 0.54,13.42 -1,20 -4.92,7.89 -11.75,10.06 -20.5,6.5 -3.31,-2.78 -5.47,-6.28 -6.5,-10.5 -2.92,-10.795 -0.08,-19.462 8.5,-26 z"
         id="path65" />
    </g>
    <g
       id="g80"
       transform="translate(-1495.5,-503.66722)">
      <path
         style="opacity:1"
         fill="#979797"
         d="m 2055.5,969.5 c 0,0.333 0,0.667 0,1 0.17,12.005 0,24.005 -0.5,36 -0.72,-0.54 -1.22,-1.21 -1.5,-2 0.67,-11.667 1.33,-23.333 2,-35 z"
         id="path80" />
    </g>
    <g
       id="g81"
       transform="translate(-1495.5,-503.66722)">
      <path
         style="opacity:1"
         fill="#070707"
         d="m 1941.5,993.5 c 0,11.67 0,23.33 0,35 -3.33,0 -6.67,0 -10,0 0.26,-1.48 -0.07,-2.81 -1,-4 -0.61,0.12 -0.94,0.46 -1,1 -8.73,6.94 -17.23,6.61 -25.5,-1 -4.83,-10.18 -1.99,-17.35 8.5,-21.5 4.99,-0.75 9.99,-1.42 15,-2 3.09,-5.148 1.42,-7.981 -5,-8.5 -3.1,0.048 -5.43,1.381 -7,4 -3.95,0.991 -7.95,1.324 -12,1 1.3,-6.809 5.3,-11.309 12,-13.5 8.53,-1.674 16.36,-0.174 23.5,4.5 1.09,1.578 1.93,3.245 2.5,5 z"
         id="path81" />
    </g>
    <g
       id="g82"
       transform="translate(-1495.5,-503.66722)">
      <path
         style="opacity:1"
         fill="#0a0a0a"
         d="m 1962.5,983.5 c 7.38,-0.811 14.38,0.356 21,3.5 3.69,2.55 5.36,6.05 5,10.5 -3.68,0.165 -7.35,-10e-4 -11,-0.5 -2.94,-4.408 -6.94,-5.575 -12,-3.5 -2.94,3.365 -2.27,5.865 2,7.5 5.4,1.08 10.73,2.41 16,4 8.63,6.1 9.3,13.1 2,21 -10.36,5.95 -20.69,5.95 -31,0 -7.76,-9.94 -5.09,-13.1 8,-9.5 1.45,3.28 3.95,4.61 7.5,4 3.69,0.58 6.19,-0.76 7.5,-4 -0.09,-1.93 -1.09,-3.09 -3,-3.5 -6.26,-0.82 -12.26,-2.49 -18,-5 -7.06,-6.05 -7.72,-12.716 -2,-20 2.6,-1.795 5.27,-3.295 8,-4.5 z"
         id="path82" />
    </g>
    <g
       id="g83"
       transform="translate(-1495.5,-503.66722)">
      <path
         style="opacity:1"
         fill="#ececec"
         d="m 1795.5,983.5 c 0.62,0.111 1.12,0.444 1.5,1 2.17,6.672 4.33,13.339 6.5,20 -4.62,0.99 -9.29,1.33 -14,1 1.79,-7.384 3.79,-14.718 6,-22 z"
         id="path83" />
    </g>
    <g
       id="g84"
       transform="translate(-1495.5,-503.66722)">
      <path
         style="opacity:1"
         fill="#ebebeb"
         d="m 2102.5,983.5 c 0.62,0.111 1.12,0.444 1.5,1 2.27,6.641 4.44,13.308 6.5,20 -4.62,0.99 -9.29,1.33 -14,1 1.79,-7.384 3.79,-14.718 6,-22 z"
         id="path84" />
    </g>
    <g
       id="g91"
       transform="translate(-1495.5,-503.66722)">
      <path
         style="opacity:1"
         fill="#a4a5a5"
         d="m 2274.5,980.5 c 0,4.333 0,8.667 0,13 8.52,-0.326 16.85,0.007 25,1 -8.67,0 -17.33,0 -26,0 -0.32,-4.863 0.01,-9.53 1,-14 z"
         id="path91" />
    </g>
    <g
       id="g92"
       transform="translate(-1495.5,-503.66722)">
      <path
         style="opacity:1"
         fill="#f1f1f1"
         d="m 1868.5,993.5 c 6.39,-0.777 10.55,1.89 12.5,8 1.59,6.7 0.09,12.53 -4.5,17.5 -6.75,2.27 -11.25,0.11 -13.5,-6.5 -2.03,-7.64 -0.2,-13.975 5.5,-19 z"
         id="path92" />
    </g>
    <g
       id="g96"
       transform="translate(-1495.5,-503.66722)">
      <path
         style="opacity:1"
         fill="#f1f1f1"
         d="m 1928.5,1008.5 c 2.69,7.29 0.19,11.62 -7.5,13 -6.5,-0.84 -8,-4.01 -4.5,-9.5 4.14,-1.07 8.14,-2.23 12,-3.5 z"
         id="path96" />
    </g>
    <g
       id="g98"
       transform="translate(-1495.5,-503.66722)">
      <path
         style="opacity:1"
         fill="#aaaaaa"
         d="m 2032.5,993.5 c -0.67,12 -1.33,24 -2,36 -0.33,-12.35 0,-24.68 1,-37 0.61,0.124 0.94,0.457 1,1 z"
         id="path98" />
    </g>
    <g
       id="g101"
       transform="translate(-1495.5,-503.66722)">
      <path
         style="opacity:1"
         fill="#343434"
         d="m 1941.5,993.5 c 1,11.82 1.33,23.82 1,36 -4,0 -8,0 -12,0 0.27,-1.6 -0.07,-2.93 -1,-4 0.06,-0.54 0.39,-0.88 1,-1 0.93,1.19 1.26,2.52 1,4 3.33,0 6.67,0 10,0 0,-11.67 0,-23.33 0,-35 z"
         id="path101" />
    </g>
    <g
       id="g102"
       transform="translate(-1495.5,-503.66722)">
      <path
         style="opacity:1"
         fill="#4b4b4a"
         d="m 1508.5,1018.5 c 9.33,0 18.67,0 28,0 0,3.67 0,7.33 0,11 -13.84,0.33 -27.51,0 -41,-1 13.33,0 26.67,0 40,0 0,-3 0,-6 0,-9 -9.18,0.33 -18.18,-0.01 -27,-1 z"
         id="path102" />
    </g>
    <g
       id="g103"
       transform="translate(-1495.5,-503.66722)">
      <path
         style="opacity:1"
         fill="#565656"
         d="m 1723.5,969.5 c 0,19.667 0,39.33 0,59 12.67,0 25.33,0 38,0 -12.82,1 -25.82,1.33 -39,1 -0.33,-20.17 0,-40.174 1,-60 z"
         id="path103" />
    </g>
    <g
       id="g104"
       transform="translate(-1495.5,-503.66722)">
      <path
         style="opacity:1"
         fill="#464646"
         d="m 1768.5,1026.5 c 3.87,1.93 8.21,2.6 13,2 -4.47,0.99 -9.14,1.32 -14,1 -0.24,-1.29 0.1,-2.29 1,-3 z"
         id="path104" />
    </g>
    <g
       id="g105"
       transform="translate(-1495.5,-503.66722)">
      <path
         style="opacity:1"
         fill="#565656"
         d="m 1824.5,1027.5 c 0.54,0.06 0.88,0.39 1,1 -4.82,1.31 -9.48,1.31 -14,0 4.53,0.32 8.87,-0.02 13,-1 z"
         id="path105" />
    </g>
    <g
       id="g106"
       transform="translate(-1495.5,-503.66722)">
      <path
         style="opacity:1"
         fill="#474747"
         d="m 2075.5,1026.5 c 3.87,1.93 8.21,2.6 13,2 -4.47,0.99 -9.14,1.32 -14,1 -0.24,-1.29 0.1,-2.29 1,-3 z"
         id="path106" />
    </g>
    <g
       id="g107"
       transform="translate(-1495.5,-503.66722)">
      <path
         style="opacity:1"
         fill="#4d4d4d"
         d="m 2131.5,1027.5 c 0.54,0.06 0.88,0.39 1,1 -4.82,1.31 -9.48,1.31 -14,0 4.53,0.32 8.87,-0.02 13,-1 z"
         id="path107" />
    </g>
    <g
       id="g108"
       transform="translate(-1495.5,-503.66722)">
      <path
         style="opacity:1"
         fill="#5d5d5d"
         d="m 2261.5,969.5 c 0,19.667 0,39.33 0,59 13.33,0 26.67,0 40,0 0,-3 0,-6 0,-9 -9.18,0.33 -18.18,-0.01 -27,-1 9.33,0 18.67,0 28,0 0,3.67 0,7.33 0,11 -14,0 -28,0 -42,0 -0.33,-20.17 0,-40.174 1,-60 z"
         id="path108" />
    </g>
  </g>
</svg>
